<?xml version="1.0" encoding="utf-8"?>
<!-- Generator: Adobe Illustrator 19.1.0, SVG Export Plug-In . SVG Version: 6.00 Build 0)  -->
<svg version="1.1" id="bslogo" xmlns="http://www.w3.org/2000/svg" xmlns:xlink="http://www.w3.org/1999/xlink" x="0px" y="0px"
	 viewBox="126 185.3 612 266.8" style="enable-background:new 126 185.3 612 266.8;" xml:space="preserve">
<style type="text/css">
	.st0{fill:#EA504E;}
	.st1{fill:#087ED7;}
	.st2{fill:#E1E2E2;}
</style>
<path class="st0" d="M738,372.1c0,0-2.4-0.4-6.4-1.3c-2-0.4-4.7-1.1-7.7-1.7c-3.1-0.7-6.7-1.3-10.7-1.7c-8-1.3-17.8-2.7-28.8-3.7
	c-11.1-1.3-23.8-2.4-37.5-3.1c-13.8-0.7-28.5-1.3-44.2-1.7c-7.7,0-16.1-0.4-24.1,0c-8.4,0-16.7,0-25.1,0.4
	c-17.1,0.4-34.8,1.1-52.9,2c-18.1,1.1-36.1,2-54.6,3.3c-9.1,0.7-18.1,1.3-27.4,2.4c-9.1,0.7-18.1,1.7-27.2,2.7
	c-4.4,0.4-9.1,1.1-13.4,1.3c-4.4,0.4-8.7,1.1-13.4,1.3c-4.4,0.7-8.7,1.1-13.1,1.3c-4.4,0.7-8.7,1.1-13.1,1.3
	c-17.1,1.7-33.9,3.1-49.9,3.3c-8,0.4-15.8,0.7-23.1,0.7c-7.4,0-14.7,0-21.8-0.4c-13.8-0.4-26.5-1.3-37.9-2.4
	c-11.4-1.3-21.1-3.1-29.2-5.1c-4-1.1-7.4-2-10.4-3.1c-3.1-1.1-5.7-2-7.7-3.1c-2-1.1-3.7-1.7-4.4-2.4c-1.1-0.7-1.3-1.1-1.3-1.1
	s0.7,0.4,1.7,0.7c1.1,0.4,2.7,1.1,4.7,1.3c2,0.7,4.7,1.1,7.7,1.7c3.1,0.7,6.7,1.1,10.7,1.3c4,0.4,8.4,0.7,13.1,0.7s10,0.4,15.4,0
	c11.1,0,23.8-0.7,37.2-1.3c6.7-0.4,14.1-1.1,21.4-1.3c7.4-0.7,15.1-1.3,22.8-2c15.8-1.3,32.1-3.1,49.2-5.1c8.7-1.1,17.4-2,26.1-3.1
	c8.7-1.1,17.8-2,26.8-3.1c9.1-1.1,18.1-1.7,27.4-2.4c9.1-0.7,18.5-1.3,27.4-2c18.5-1.3,36.8-2,54.9-2.4c18.1-0.4,35.9-0.4,53.3,0
	c8.7,0.4,17.1,0.4,25.4,1.1c8.4,0.4,16.4,1.1,24.5,1.3c15.8,1.1,30.8,2.7,44.6,4.4c13.8,2,26.5,4,37.5,6c11.1,2.4,20.8,4.4,28.5,6.7
	c4,1.1,7.4,2,10.4,3.1c3.1,1.1,5.7,1.7,7.7,2.4C735.6,371.4,738,372.1,738,372.1z"/>
<path class="st1" d="M268.6,294.7c0-17.4-9.8-27.4-30.1-30.5c17.1-3.7,25.1-12.7,25.1-27.4c0-21.8-13.8-30.8-47.9-30.8h-55.2v13.8
	h9.4c2.7,0,3.7,1.3,3.7,5.1v84.3c0,4-1.1,5.4-3.7,5.4h-9.4v13.8h54.9C252.5,328.2,268.6,318.2,268.6,294.7z M199.6,219.8H215
	c15.8,0,21.4,5.1,21.4,20.1c0,14.1-7.4,19.8-22.8,19.8h-14.1V219.8z M199.6,271.7h18.5c16.1,0,23.1,6,23.1,21.8
	c0,15.4-6.7,21.1-24.5,21.1h-17.1V271.7z"/>
<polygon class="st1" points="577.3,223.8 589.4,214.4 601.4,223.8 596.8,209.1 608.8,200 594.1,200 589.4,185.3 584.6,200 
	569.6,200 581.7,209.1 "/>
<g id="XMLID_1_">
	<g>
		<path class="st1" d="M703.2,341.6c4.3,1.3,5.8,2.7,5.8,2.7s-2-0.3-6.4-1.3c-2-0.7-4.7-1.1-7.8-1.7c-3.3-0.7-6.7-1.3-10.7-2
			c-8-1.3-17.7-2.7-28.8-4c-11.1-1.3-23.4-2.3-37.2-3.4c-13.7-1-28.5-1.6-44.2-2c-15.7-0.4-32.4-0.4-49.5,0
			c-17,0.4-34.8,0.7-52.9,1.7c-18.1,0.7-36.5,2-54.6,3.3c-18.1,1.7-36.1,3.3-54.2,5.1c-4.3,0.3-9,1-13.4,1.3c-4.7,0.3-9,1-13.4,1.3
			c-8.7,1-17.4,2-26.1,3.1c-17,1.7-33.8,3.1-49.5,3.7c-15.8,0.7-30.8,0.7-44.6,0.7c-14.1-0.3-26.8-1-37.9-2c-11-1-20.8-2.4-28.8-4.4
			c-4-1-7.4-2-10.4-2.7c-3.1-1-5.7-2-7.8-3.1c-2.3-1-3.6-1.7-4.7-2.4c0.9,0.4,2.7,1,4.7,1.7c4.4,1.3,10.4,2.7,18.5,3.3
			c4,0.4,8.4,0.7,13.1,1.1c4.7,0.4,9.7,0.4,15.4,0.4c5.7,0,11.4,0,17.8-0.4c6.4,0,13.1-0.3,19.8-0.7c13.7-0.7,28.4-1.7,44.2-3.1
			c8-0.7,16.1-1.3,24.1-2.4c8.4-0.7,16.7-1.6,25.2-2.7c3.3-0.7,6.7-1,10-1.3c-31.8-1.3-47.5-22.4-47.5-51.5
			c0-30.8,19.4-51.5,47.9-51.5c29.2,0,45.2,19,45.2,51.5v5.1h-66.9c0.3,18.5,9,30.5,26.1,30.5c13.1,0,20.8-7,25.1-18.7l14.4,6.7
			c-4,11.8-11.8,21.4-25.1,25.8c7.6-1,15.4-2,23.4-2.7c1.7-0.3,3.7-0.3,5.7-0.7v-12.4h8.4c2.3,0,3.4-0.7,3.4-5.4v-56.6
			c0-4.7-1-6-3.4-6h-9.1v-15.1h15.4c9.4,0,17.7-1,22.1-2v21.4c4.4-15.7,14.1-22.1,25.1-22.1c13.7,0,22.1,9.4,22.1,23.8
			c0,12.7-7.4,21.1-18.1,21.1c-6.7,0-12.7-6-12.7-13.4c0-5.4,3.4-11,9.1-12.7c-1.3-1.3-3.7-2-6.4-2c-12.3,0-18.7,12.3-18.7,32.8
			v30.8c0,4.7,1.3,5.4,3.3,5.4h9.1v8c11.7-0.7,23.7-1.3,35.5-1.7v-6.4h8.4c2.3,0,3.4-0.7,3.4-5.4v-56.6c0-4.7-1-6-3.4-6h-6
			c-0.7-4-4-12.7-9.1-15.1h21.4c9.1,0,17.8-1,21.8-2v19.4c5.7-13.4,16.5-20.1,31.2-20.1c19.4,0,29.8,12,29.8,36.5v43.5
			c0,4.7,1.3,5.3,3.3,5.3h8.4v6.7c1.1,0,2,0,3.1,0v-6.7h8.4c2,0,3.1-0.9,3.1-5.3v-54.6c0-6.3-0.7-8-4-8h-7.4V230H580
			c9.4,0,17.7-1,22.1-2v79.7c0,4.3,1.1,5.4,3.1,5.4h8v10.7c2,0.3,4,0.3,6,0.7c9.7,1.3,19,2.7,27.4,4c-22.1-6.3-33.2-25.1-33.2-49.5
			c0-30.8,19.4-51.5,47.9-51.5c29.2,0,45.2,19,45.2,51.5v5.1h-66.9c0.3,18.4,9,30.5,26.1,30.5c13.1,0,20.8-7,25.2-18.7l14.4,6.7
			c-5.3,15.7-17.7,28.1-41.5,28.1c-2,0-4-0.4-6-0.4c10.4,2,19.8,4,27.1,6c4,1,7.4,2,10.4,3.1C698.5,340.3,701.2,340.9,703.2,341.6z
			 M639.2,270.6h41.5c-0.3-19.7-6-27.4-19.4-27.4C647.9,243.2,640.6,251.2,639.2,270.6z M525.1,307.8v-43.2
			c0-13.7-4.7-19.4-15.1-19.4c-12.7,0-20.1,10.3-20.1,32.1v30.5c0,4.7,1.3,5.4,3.4,5.4h7.4v5.3c4.7-0.4,9.4-0.4,13.8,0v-5.3h7.4
			C524.1,313.2,525.1,312.5,525.1,307.8z M298.1,270.6h41.5c-0.3-19.7-6-27.4-19.4-27.4C306.8,243.2,299.5,251.2,298.1,270.6z"/>
		<path d="M124.9,334.5c0,0,0.7,0,1.3,1.1C125.6,334.9,124.9,334.5,124.9,334.5z"/>
	</g>
</g>
<path class="st1" d="M385.6,434.4c3.1-3.2,5.2-5.7,6.3-7.7s1.7-4.1,1.7-6.3c0-3.9-1.3-7-4-9.3c-2.7-2.3-5.8-3.4-9.4-3.4
	c-3.5,0-6.5,0.7-8.8,2.1s-4.3,3.5-6.2,6.4l5.8,3.3c2.3-3.6,5.3-5.4,8.8-5.4c2,0,3.6,0.6,5,1.8s1.9,2.7,1.9,4.4
	c0,1.7-0.6,3.4-1.8,5.1c-1.2,1.7-3.3,4-6.2,6.9l-13,13v6.1H395v-6.9h-19.4L385.6,434.4z M419.3,407.7c-5.8,0-10.2,2-13.1,6
	c-2.9,4-4.3,9.4-4.3,16.2c0,6.8,1.4,12.1,4.3,16.2c2.9,4,7.3,6,13.1,6s10.2-2,13.1-6c2.9-4,4.3-9.4,4.3-16.2
	c0-6.8-1.4-12.1-4.3-16.2C429.5,409.7,425.1,407.7,419.3,407.7z M427.1,441.4c-1.6,3-4.3,4.4-7.8,4.4c-3.6,0-6.2-1.4-7.9-4.4
	c-1.7-3-2.6-6.8-2.6-11.6s0.9-8.6,2.6-11.6c1.7-3,4.3-4.4,7.9-4.4s6.2,1.4,7.8,4.4s2.5,6.8,2.5,11.6S428.8,438.5,427.1,441.4z"/>
<polygon class="st1" points="442.1,415.1 450.8,415.1 450.8,451.5 457.6,451.5 457.6,408.7 442.1,408.7 "/>
<path class="st1" d="M494.6,427.8c-2.6-2.6-5.8-3.8-9.7-3.8c-2.3,0-4.5,0.5-6.4,1.5c-1.9,1-3.3,2.1-4.4,3.3c0-4.4,1-7.8,2.8-10.4
	c1.8-2.6,4.6-3.8,8.4-3.8c1.2,0,2.6,0.3,4.2,1c1.5,0.7,2.9,1.4,3.7,2.2l3.6-5.4c-3.7-2.9-7.9-4.3-12.6-4.3s-8.5,1.7-11.8,5
	c-1.6,1.7-3,4-3.8,7c-1,3-1.4,6.6-1.4,11c0,4.4,0.8,8.3,2.2,11.9c2.6,6.1,7.4,9.2,14.2,9.2c4.2,0,7.7-1.2,10.5-3.8s4.2-5.9,4.2-10.2
	C498.4,433.6,497.2,430.3,494.6,427.8z M489.8,443.5c-1.6,1.4-3.6,2.1-6,2.1s-4.4-0.8-6-2.4c-1.6-1.5-2.4-3.4-2.4-5.6
	s0.9-3.9,2.5-5.4c1.6-1.3,3.7-2,6.2-2s4.4,0.8,5.9,2.3c1.4,1.5,2.2,3.3,2.2,5.5C492.1,440.4,491.3,442.1,489.8,443.5z"/>
<rect x="168.6" y="428.7" class="st2" width="181.7" height="2.4"/>
<rect x="514.7" y="428.7" class="st2" width="181.7" height="2.4"/>
</svg>
